<mxfile host="app.diagrams.net" modified="2020-12-16T02:29:27.136Z" agent="5.0 (Windows NT 10.0; Win64; x64) AppleWebKit/537.36 (KHTML, like Gecko) Chrome/87.0.4280.88 Safari/537.36 Edg/87.0.664.60" etag="KV1qYk6YyAmep1A1xgME" version="14.0.1" type="github">
  <diagram id="AK8F_Xtx8BIeiRaeC9NT" name="第 1 页">
    <mxGraphModel dx="1171" dy="701" grid="1" gridSize="10" guides="1" tooltips="1" connect="1" arrows="1" fold="1" page="1" pageScale="1" pageWidth="827" pageHeight="1169" math="0" shadow="0">
      <root>
        <mxCell id="0" />
        <mxCell id="1" parent="0" />
        <mxCell id="aLnkbQY_syjK02-2m2VQ-1" style="edgeStyle=orthogonalEdgeStyle;rounded=0;orthogonalLoop=1;jettySize=auto;html=1;exitX=0.5;exitY=1;exitDx=0;exitDy=0;exitPerimeter=0;entryX=0.5;entryY=0;entryDx=0;entryDy=0;entryPerimeter=0;" edge="1" parent="1" source="aLnkbQY_syjK02-2m2VQ-2" target="aLnkbQY_syjK02-2m2VQ-6">
          <mxGeometry relative="1" as="geometry" />
        </mxCell>
        <mxCell id="aLnkbQY_syjK02-2m2VQ-2" value="开始" style="strokeWidth=2;html=1;shape=mxgraph.flowchart.start_1;whiteSpace=wrap;" vertex="1" parent="1">
          <mxGeometry x="330" y="60" width="70" height="40" as="geometry" />
        </mxCell>
        <mxCell id="aLnkbQY_syjK02-2m2VQ-3" value="儿子进程" style="text;html=1;strokeColor=none;fillColor=none;align=center;verticalAlign=middle;whiteSpace=wrap;rounded=0;" vertex="1" parent="1">
          <mxGeometry x="322.5" y="20" width="85" height="30" as="geometry" />
        </mxCell>
        <mxCell id="aLnkbQY_syjK02-2m2VQ-4" style="edgeStyle=orthogonalEdgeStyle;rounded=0;orthogonalLoop=1;jettySize=auto;html=1;exitX=1;exitY=0.5;exitDx=0;exitDy=0;exitPerimeter=0;" edge="1" parent="1" source="aLnkbQY_syjK02-2m2VQ-6">
          <mxGeometry relative="1" as="geometry">
            <mxPoint x="480" y="240" as="targetPoint" />
          </mxGeometry>
        </mxCell>
        <mxCell id="aLnkbQY_syjK02-2m2VQ-5" style="edgeStyle=orthogonalEdgeStyle;rounded=0;orthogonalLoop=1;jettySize=auto;html=1;exitX=0.5;exitY=1;exitDx=0;exitDy=0;exitPerimeter=0;entryX=0.5;entryY=0;entryDx=0;entryDy=0;" edge="1" parent="1" source="aLnkbQY_syjK02-2m2VQ-6" target="aLnkbQY_syjK02-2m2VQ-9">
          <mxGeometry relative="1" as="geometry" />
        </mxCell>
        <mxCell id="aLnkbQY_syjK02-2m2VQ-6" value="盘子是否有桔子？" style="strokeWidth=2;html=1;shape=mxgraph.flowchart.decision;whiteSpace=wrap;" vertex="1" parent="1">
          <mxGeometry x="318.75" y="130" width="92.5" height="90" as="geometry" />
        </mxCell>
        <mxCell id="aLnkbQY_syjK02-2m2VQ-7" value="否" style="text;html=1;strokeColor=none;fillColor=none;align=center;verticalAlign=middle;whiteSpace=wrap;rounded=0;" vertex="1" parent="1">
          <mxGeometry x="420" y="150" width="40" height="20" as="geometry" />
        </mxCell>
        <mxCell id="aLnkbQY_syjK02-2m2VQ-8" style="edgeStyle=orthogonalEdgeStyle;rounded=0;orthogonalLoop=1;jettySize=auto;html=1;exitX=0.5;exitY=1;exitDx=0;exitDy=0;entryX=0.5;entryY=0;entryDx=0;entryDy=0;" edge="1" parent="1" source="aLnkbQY_syjK02-2m2VQ-9" target="aLnkbQY_syjK02-2m2VQ-11">
          <mxGeometry relative="1" as="geometry" />
        </mxCell>
        <mxCell id="aLnkbQY_syjK02-2m2VQ-9" value="吃桔子" style="rounded=1;whiteSpace=wrap;html=1;absoluteArcSize=1;arcSize=14;strokeWidth=2;" vertex="1" parent="1">
          <mxGeometry x="312" y="260" width="106" height="40" as="geometry" />
        </mxCell>
        <mxCell id="aLnkbQY_syjK02-2m2VQ-10" value="是&lt;br&gt;" style="text;html=1;strokeColor=none;fillColor=none;align=center;verticalAlign=middle;whiteSpace=wrap;rounded=0;" vertex="1" parent="1">
          <mxGeometry x="327.5" y="220" width="40" height="20" as="geometry" />
        </mxCell>
        <mxCell id="aLnkbQY_syjK02-2m2VQ-11" value="唤醒mother进程" style="rounded=1;whiteSpace=wrap;html=1;absoluteArcSize=1;arcSize=14;strokeWidth=2;" vertex="1" parent="1">
          <mxGeometry x="314" y="370" width="102" height="40" as="geometry" />
        </mxCell>
        <mxCell id="aLnkbQY_syjK02-2m2VQ-12" value="son进程阻塞" style="text;html=1;strokeColor=none;fillColor=none;align=center;verticalAlign=middle;whiteSpace=wrap;rounded=0;" vertex="1" parent="1">
          <mxGeometry x="430" y="240" width="110" height="30" as="geometry" />
        </mxCell>
      </root>
    </mxGraphModel>
  </diagram>
</mxfile>
